<?xml version="1.0" encoding="UTF-8" standalone="no"?>
<!-- Created with Inkscape (http://www.inkscape.org/) -->

<svg
   xmlns:dc="http://purl.org/dc/elements/1.1/"
   xmlns:cc="http://creativecommons.org/ns#"
   xmlns:rdf="http://www.w3.org/1999/02/22-rdf-syntax-ns#"
   xmlns:svg="http://www.w3.org/2000/svg"
   xmlns="http://www.w3.org/2000/svg"
   xmlns:sodipodi="http://sodipodi.sourceforge.net/DTD/sodipodi-0.dtd"
   xmlns:inkscape="http://www.inkscape.org/namespaces/inkscape"
   width="64"
   height="64"
   id="svg5304"
   version="1.1"
   inkscape:version="0.91 r13725"
   viewBox="0 0 64 64"
   sodipodi:docname="tool.svg">
  <defs
     id="defs5306" />
  <sodipodi:namedview
     id="base"
     pagecolor="#ffffff"
     bordercolor="#666666"
     borderopacity="1.0"
     inkscape:pageopacity="0.0"
     inkscape:pageshadow="2"
     inkscape:zoom="5.5"
     inkscape:cx="-9.8950798"
     inkscape:cy="39.272727"
     inkscape:current-layer="layer1"
     showgrid="true"
     inkscape:document-units="px"
     inkscape:grid-bbox="true"
     inkscape:window-width="1366"
     inkscape:window-height="715"
     inkscape:window-x="-8"
     inkscape:window-y="-8"
     inkscape:window-maximized="1" />
  <metadata
     id="metadata5309">
    <rdf:RDF>
      <cc:Work
         rdf:about="">
        <dc:format>image/svg+xml</dc:format>
        <dc:type
           rdf:resource="http://purl.org/dc/dcmitype/StillImage" />
        <dc:title />
      </cc:Work>
    </rdf:RDF>
  </metadata>
  <g
     id="layer1"
     inkscape:label="Layer 1"
     inkscape:groupmode="layer">
    <polygon
       points="42.258,29.267 42.258,41.125 57.742,56.608 57.742,44.75 "
       id="polygon4"
       transform="matrix(1.1624903,0,0,0.92201306,-26.124515,-17.161275)" />
    <polygon
       points="42.258,48.032 42.258,59.89 57.742,75.374 57.742,63.516 "
       id="polygon6"
       transform="matrix(1.1624903,0,0,0.92201306,-26.124515,-17.161275)" />
    <polygon
       points="42.258,85.857 50,84.467 57.742,85.857 57.742,82.281 42.258,66.797 "
       id="polygon8"
       transform="matrix(1.1624903,0,0,0.92201306,-26.124515,-17.161275)" />
    <polygon
       points="42.258,20.782 42.258,22.36 57.742,37.843 57.742,20.782 "
       id="polygon10"
       transform="matrix(1.1624903,0,0,0.92201306,-26.124515,-17.161275)" />
    <rect
       style="stroke-width:1;stroke-miterlimit:4;stroke-dasharray:none"
       id="rect5864"
       width="18"
       height="3.068182"
       x="23"
       y="58.931816" />
  </g>
</svg>
