<?xml version="1.0" encoding="UTF-8" standalone="no"?>
<!DOCTYPE svg PUBLIC "-//W3C//DTD SVG 1.1//EN" "http://www.w3.org/Graphics/SVG/1.1/DTD/svg11.dtd">
<!-- Generated by Microsoft Visio, SVG Export ncjs_structure.svg Top Process -->
<svg xmlns="http://www.w3.org/2000/svg" xmlns:xlink="http://www.w3.org/1999/xlink" xmlns:ev="http://www.w3.org/2001/xml-events"
		width="7.82333in" height="5.72535in" viewBox="0 0 563.28 412.225" xml:space="preserve" color-interpolation-filters="sRGB"
		class="st14">
	<style type="text/css">
	<![CDATA[
		.st1 {fill:#d8d8d8;stroke:#000000;stroke-linecap:round;stroke-linejoin:round;stroke-width:0.24}
		.st2 {fill:#9dbb61;stroke:#000000;stroke-linecap:round;stroke-linejoin:round;stroke-width:0.24}
		.st3 {fill:#000000;font-family:Arial;font-size:1.16666em;font-weight:bold}
		.st4 {fill:#4bacc6;stroke:#000000;stroke-linecap:round;stroke-linejoin:round;stroke-width:0.24}
		.st5 {font-size:0.785725em;font-weight:normal}
		.st6 {fill:#ffc000;stroke:#000000;stroke-linecap:round;stroke-linejoin:round;stroke-width:0.24}
		.st7 {fill:#ffff00;stroke:#000000;stroke-linecap:round;stroke-linejoin:round;stroke-width:0.24}
		.st8 {stroke:#000000;stroke-linecap:round;stroke-linejoin:round;stroke-width:0.24}
		.st9 {fill:none;stroke:none;stroke-linecap:round;stroke-linejoin:round;stroke-width:0.75}
		.st10 {fill:#000000;font-family:Arial;font-size:0.916672em}
		.st11 {font-size:1em}
		.st12 {fill:#000000}
		.st13 {fill:#000000;font-family:Arial;font-size:0.916672em;font-style:italic}
		.st14 {fill:none;fill-rule:evenodd;font-size:12px;overflow:visible;stroke-linecap:square;stroke-miterlimit:3}
	]]>
	</style>

	<g>
		<title>Top Process</title>
		<g id="shape43-1" transform="translate(18.12,-18.12)">
			<title>Double Wave</title>
			<path d="M0 400.13 A171.351 157.369 0 0 1 131.76 400.13 A171.351 157.369 -180 0 0 263.52 400.13 A171.351 157.369 0 0
						 1 395.28 400.13 A171.351 157.369 -180 0 0 527.04 400.13 L527.04 343.68 A171.351 157.369 0 0 1 395.28 343.68
						 A171.351 157.369 -180 0 0 263.52 343.68 A171.351 157.369 0 0 1 131.76 343.68 A171.351 157.369 -180 0 0 0
						 343.68 L0 400.13 Z" class="st1"/>
		</g>
		<g id="shape18-3" transform="translate(36.24,-139.225)">
			<title>Box.18</title>
			<desc>Node.js</desc>
			<rect x="0" y="331.585" width="270" height="80.64" class="st2"/>
			<text x="4" y="348.19" class="st3">Node.js</text>		</g>
		<g id="shape14-6" transform="translate(36.24,-313.465)">
			<title>Box</title>
			<desc>NC.js Client (Display geometry, assembly, removal volumes usi...</desc>
			<rect x="0" y="331.585" width="270" height="80.64" class="st4"/>
			<text x="95.72" y="356.31" class="st3">NC.js Client <tspan x="5.09" dy="1.282em" class="st5">(Display geometry, assembly, removal volumes using </tspan><tspan
						x="4.16" dy="1.2em" class="st5">WebGL/Three.js, format and display PMI and process </tspan><tspan x="81.2"
						dy="1.2em" class="st5">details using React.js)</tspan></text>		</g>
		<g id="shape15-12" transform="translate(36.24,-225.145)">
			<title>Box.15</title>
			<desc>NC.js REST API (assemble JSON responses using STEP API)</desc>
			<rect x="0" y="362.305" width="270" height="49.92" class="st4"/>
			<text x="82.88" y="384.87" class="st3">NC.js REST API <tspan x="23.73" dy="1.282em" class="st5">(assemble JSON responses using STEP API)</tspan></text>		</g>
		<g id="shape16-16" transform="translate(50.64,-168.24)">
			<title>Box.16</title>
			<desc>STEPNode Wrapper</desc>
			<rect x="0" y="387.265" width="216" height="24.96" class="st6"/>
			<text x="41.88" y="403.95" class="st3">STEPNode Wrapper</text>		</g>
		<g id="shape17-19" transform="translate(50.64,-73.68)">
			<title>Box.17</title>
			<desc>STEP Tools Software stack (read/write STEP models, API for PM...</desc>
			<rect x="0" y="321.505" width="216" height="90.72" class="st7"/>
			<text x="17.75" y="351.27" class="st3">STEP Tools Software stack <tspan x="14.17" dy="1.282em" class="st5">(read/write STEP models, API for PMI, </tspan><tspan
						x="17.82" dy="1.2em" class="st5">assemblies, and process, mesh CAD </tspan><tspan x="13.25" dy="1.2em"
						class="st5">geometry, material removal simulation)</tspan></text>		</g>
		<g id="shape19-25" transform="translate(333.24,-225.145)">
			<title>Right Parenthesis</title>
			<path d="M0 412.23 A21.1303 22.539 -180 0 0 19.8 395.33 L19.8 260.16 A21.1303 22.539 -180 0 0 0 243.27" class="st8"/>
		</g>
		<g id="shape20-28" transform="translate(367.123,-303.465)">
			<title>Sheet.20</title>
			<desc>NC.js GitHub Package (javascript)</desc>
			<rect x="0" y="392.225" width="132.935" height="20" class="st9"/>
			<text x="11.45" y="398.93" class="st10">NC.js GitHub Package <tspan x="39.57" dy="1.2em" class="st11">(javascript)</tspan></text>		</g>
		<g id="shape29-32" transform="translate(338.64,-171.074)">
			<title>Sheet.29</title>
			<desc>STEPNode GitHub Package (Node Module)</desc>
			<rect x="0" y="392.225" width="189.9" height="20" class="st9"/>
			<text x="25.86" y="398.93" class="st10">STEPNode GitHub Package <tspan x="58.57" dy="1.2em" class="st11">(Node Module)</tspan></text>		</g>
		<g id="shape30-36" transform="translate(352.881,-109.04)">
			<title>Sheet.30</title>
			<desc>Commercial Software (C++ and .NET APIs)</desc>
			<rect x="0" y="392.225" width="161.417" height="20" class="st9"/>
			<text x="28.14" y="398.93" class="st10">Commercial Software <tspan x="28.75" dy="1.2em" class="st11">(C++ and .NET APIs)</tspan></text>		</g>
		<g id="shape32-40" transform="translate(266.64,-119.04)">
			<title>Dotted line</title>
			<path d="M90.74 412.23 A4.5 4.5 -180 0 0 81.74 412.23 A4.5 4.5 -180 1 0 90.74 412.23 Z" class="st12"/>
			<path d="M90.74 412.23 A4.5 4.5 -180 0 0 81.74 412.23 A4.5 4.5 -180 1 0 90.74 412.23" class="st8"/>
			<path d="M0 412.23 L81.74 412.23" class="st8"/>
		</g>
		<g id="shape35-44" transform="translate(264.615,-180.715) rotate(-0.281451)">
			<title>Dotted line.35</title>
			<path d="M76.5 412.23 A4.5 4.5 -180 0 0 67.5 412.23 A4.5 4.5 -180 0 0 76.5 412.23 Z" class="st12"/>
			<path d="M76.5 412.23 A4.5 4.5 -180 0 0 67.5 412.23 A4.5 4.5 -180 0 0 76.5 412.23" class="st8"/>
			<path d="M0 412.23 L67.5 412.23" class="st8"/>
		</g>
		<g id="shape38-48" transform="translate(104.905,-282.745)">
			<title>Sheet.38</title>
			<desc>web connection</desc>
			<rect x="0" y="392.225" width="132.935" height="20" class="st9"/>
			<text x="28.25" y="405.53" class="st13">web connection</text>		</g>
		<g id="shape44-51" transform="translate(250.65,-67.3053)">
			<title>Sheet.44</title>
			<desc>Digital Thread</desc>
			<rect x="0" y="392.225" width="189.9" height="20" class="st9"/>
			<text x="48.28" y="406.43" class="st3">Digital Thread</text>		</g>
		<g id="shape45-54" transform="translate(250.65,-45.4737)">
			<title>Sheet.45</title>
			<desc>(STEP, MTConnect, QIF)</desc>
			<rect x="0" y="392.225" width="189.9" height="20" class="st9"/>
			<text x="33.22" y="405.53" class="st10">(STEP, MTConnect, QIF)</text>		</g>
	</g>
</svg>
